<mxfile host="app.diagrams.net" agent="Mozilla/5.0 (Windows NT 10.0; Win64; x64) AppleWebKit/537.36 (KHTML, like Gecko) Chrome/128.0.0.0 YaBrowser/24.10.0.0 Safari/537.36" version="24.8.4">
  <diagram name="Страница — 1" id="HjlF0O2WVMcymmXI0Ss4">
    <mxGraphModel dx="660" dy="948" grid="1" gridSize="10" guides="1" tooltips="1" connect="1" arrows="1" fold="1" page="1" pageScale="1" pageWidth="827" pageHeight="1169" math="0" shadow="0">
      <root>
        <mxCell id="0" />
        <mxCell id="1" parent="0" />
        <mxCell id="fB6qS6Jc5jbiI-GZW9Oa-1" value="Program" style="rounded=0;whiteSpace=wrap;html=1;" vertex="1" parent="1">
          <mxGeometry x="354" y="555" width="120" height="60" as="geometry" />
        </mxCell>
        <mxCell id="fB6qS6Jc5jbiI-GZW9Oa-2" value="EXCEL" style="shape=cylinder3;whiteSpace=wrap;html=1;boundedLbl=1;backgroundOutline=1;size=15;" vertex="1" parent="1">
          <mxGeometry x="384" y="390" width="60" height="60" as="geometry" />
        </mxCell>
        <mxCell id="fB6qS6Jc5jbiI-GZW9Oa-3" value="API 2GIS" style="rounded=1;whiteSpace=wrap;html=1;" vertex="1" parent="1">
          <mxGeometry x="560" y="555" width="60" height="60" as="geometry" />
        </mxCell>
        <mxCell id="fB6qS6Jc5jbiI-GZW9Oa-7" value="" style="edgeStyle=orthogonalEdgeStyle;rounded=0;orthogonalLoop=1;jettySize=auto;html=1;shape=flexArrow;startArrow=block;" edge="1" parent="1" source="fB6qS6Jc5jbiI-GZW9Oa-5" target="fB6qS6Jc5jbiI-GZW9Oa-1">
          <mxGeometry relative="1" as="geometry" />
        </mxCell>
        <mxCell id="fB6qS6Jc5jbiI-GZW9Oa-5" value="&lt;br&gt;User" style="shape=actor;whiteSpace=wrap;html=1;" vertex="1" parent="1">
          <mxGeometry x="210" y="555" width="60" height="60" as="geometry" />
        </mxCell>
        <mxCell id="fB6qS6Jc5jbiI-GZW9Oa-8" value="" style="shape=flexArrow;endArrow=classic;html=1;rounded=0;exitX=0.5;exitY=0;exitDx=0;exitDy=0;entryX=0.5;entryY=1;entryDx=0;entryDy=0;entryPerimeter=0;endWidth=30;endSize=4.925000000000001;" edge="1" parent="1" source="fB6qS6Jc5jbiI-GZW9Oa-1" target="fB6qS6Jc5jbiI-GZW9Oa-2">
          <mxGeometry width="50" height="50" relative="1" as="geometry">
            <mxPoint x="490" y="560" as="sourcePoint" />
            <mxPoint x="540" y="510" as="targetPoint" />
          </mxGeometry>
        </mxCell>
        <mxCell id="fB6qS6Jc5jbiI-GZW9Oa-9" value="" style="shape=flexArrow;endArrow=classic;html=1;rounded=0;exitX=1;exitY=0.5;exitDx=0;exitDy=0;entryX=0;entryY=0.5;entryDx=0;entryDy=0;startArrow=block;" edge="1" parent="1" source="fB6qS6Jc5jbiI-GZW9Oa-1" target="fB6qS6Jc5jbiI-GZW9Oa-3">
          <mxGeometry width="50" height="50" relative="1" as="geometry">
            <mxPoint x="490" y="560" as="sourcePoint" />
            <mxPoint x="540" y="510" as="targetPoint" />
          </mxGeometry>
        </mxCell>
        <mxCell id="fB6qS6Jc5jbiI-GZW9Oa-10" value="API requests" style="whiteSpace=wrap;html=1;shape=mxgraph.basic.rectCallout;dx=30;dy=15;boundedLbl=1;" vertex="1" parent="1">
          <mxGeometry x="510" y="500" width="90" height="60" as="geometry" />
        </mxCell>
        <mxCell id="fB6qS6Jc5jbiI-GZW9Oa-11" value="Data" style="whiteSpace=wrap;html=1;shape=mxgraph.basic.rectCallout;dx=30;dy=15;boundedLbl=1;flipH=1;rotation=-15;" vertex="1" parent="1">
          <mxGeometry x="300" y="470" width="90" height="60" as="geometry" />
        </mxCell>
        <mxCell id="fB6qS6Jc5jbiI-GZW9Oa-12" value="Input, Output" style="whiteSpace=wrap;html=1;shape=mxgraph.basic.rectCallout;dx=30;dy=15;boundedLbl=1;flipH=0;rotation=0;flipV=1;" vertex="1" parent="1">
          <mxGeometry x="290" y="610" width="90" height="60" as="geometry" />
        </mxCell>
      </root>
    </mxGraphModel>
  </diagram>
</mxfile>
